<svg xmlns="http://www.w3.org/2000/svg" xmlns:xlink="http://www.w3.org/1999/xlink" id="Layer_1" x="0" y="0" enable-background="new 0 0 96 96" version="1.1" viewBox="0 0 96 96" xml:space="preserve"><g id="XMLID_2_"><path id="XMLID_6_" fill="#FFF" d="M0,48l0,3.6c0,12.7,7.7,21.6,18.7,21.6h1.8c4.9,0,9.8-2.8,13.3-6.8c3.9,3,8.8,4.9,14.2,4.9 c12.9,0,23.3-10.5,23.3-23.3S60.9,24.7,48,24.7c-12.9,0-23.3,10.5-23.3,23.3v7.5c-0.1,1.3-2.8,3.9-4.1,4h-1.8c-4.4,0-5-4.9-5-7.8 V48c0-18.9,15.4-34.3,34.3-34.3c18.9,0,34.3,15.4,34.3,34.3c0,18.9-15.4,34.3-34.3,34.3c-7,0-11.9-2-15.2-3.5l-7.4,11.6 C30.6,93.2,38.2,96,48,96c26.5,0,48-21.5,48-48C96,21.5,74.5,0,48,0C21.5,0,0,21.5,0,48z M38.4,48c0-5.3,4.3-9.6,9.6-9.6 c5.3,0,9.6,4.3,9.6,9.6c0,5.3-4.3,9.6-9.6,9.6C42.7,57.6,38.4,53.3,38.4,48z"/></g></svg>